# xmcd
#
# Track frame offsets: 
#        150
#        11279
#        22164
#        32018
#        44848
#        56273
#        67356
#        78393
#        90823
#        100624
#        113912
#        124568
#        136663
#        147645
#        161521
#        175752
#        187605
#        198745
#        208687
#        220142
#        233630
#
# Disc length: 3241 seconds
#
# Revision: 0
# Processed by: cddbd v1.5.2PL0 Copyright (c) Steve Scherf et al.
# Submitted via: ExactAudioCopyFreeDBPlugin 1.0
#
DISCID=1b0ca715
DTITLE=Tommy Collins - This Is Tommy Collins and Words And Music Country
DTITLE=Style
DYEAR=2017
DGENRE=Country
TTITLE0=You Better Not Do That
TTITLE1=I Always Get A Souvenir
TTITLE2=Untied
TTITLE3=How Do I Say Goodbye
TTITLE4=I'll Be Gone
TTITLE5=It Tickles
TTITLE6=You Gotta Have A License
TTITLE7=High On A Hilltop
TTITLE8=Boob-I-Lak
TTITLE9=Smooth Sailin'
TTITLE10=Love-A-Me, S'il Vous Plait
TTITLE11=Whatcha Gonna Do Now
TTITLE12=All The Monkeys Ain't In The Zoo
TTITLE13=Those Old Love Letters From You
TTITLE14=A Man We All Ought To Know
TTITLE15=The Feet Of The Traveler
TTITLE16=I'll Always Speak Well Of You
TTITLE17=Think It Over Boys
TTITLE18=I Think Of You Yet
TTITLE19=Are You Ready To Go
TTITLE20=Upon This Rock
EXTD=
EXTT0=
EXTT1=
EXTT2=
EXTT3=
EXTT4=
EXTT5=
EXTT6=
EXTT7=
EXTT8=
EXTT9=
EXTT10=
EXTT11=
EXTT12=
EXTT13=
EXTT14=
EXTT15=
EXTT16=
EXTT17=
EXTT18=
EXTT19=
EXTT20=
PLAYORDER=
